<?xml version="1.0" encoding="utf-8"?>
<!-- Generator: Adobe Illustrator 19.2.1, SVG Export Plug-In . SVG Version: 6.00 Build 0)  -->
<svg version="1.1" id="Capa_1" xmlns="http://www.w3.org/2000/svg" xmlns:xlink="http://www.w3.org/1999/xlink" x="0px" y="0px"
	 viewBox="0 0 484.3 472.4" style="enable-background:new 0 0 484.3 472.4;" xml:space="preserve">
<style type="text/css">
	.st0{fill:#FFFFFF;}
</style>
<title>bee</title>
<path class="st0" d="M413,166.5c-26.4-18.4-60.2-22.6-90.4-11.2c17.3-27,19.9-60.8,6.8-90.1C315.4,32.4,283.7,10.6,248.1,9h-4.5
	h-4.3c-35.7,1.3-67.5,22.8-81.9,55.5c-13.7,30-10.9,64.9,7.4,92.3c-30.9-13-66.3-9.3-93.8,9.8c-30.3,20.6-46.2,56.6-40.8,92.9
	c0,1.5,0.5,3,0.8,4.5s0.6,3,1,4.5c8.2,35.7,36.1,63.5,71.8,71.7c7.5,1.8,15.3,2.7,23,2.7c5.3,0,10.6-0.6,15.8-1.6
	c-3.8,21-1.2,42.7,7.7,62.2c15.7,35.5,50.3,58.9,89.1,60.2h5.4h5.3c38.7-2,72.8-26,87.8-61.7c8.2-18.9,10.6-39.8,7-60
	c4.3,0.7,8.7,1,13,1.1c7.7,0,15.5-0.9,23-2.7c35.7-8.1,63.6-36,71.8-71.7c0.4-1.5,0.7-3,1-4.5c0-1.5,0.5-3,0.8-4.5
	C459.6,223.2,443.6,187,413,166.5z M242.3,251.4L242.3,251.4L242.3,251.4l46.7,55c-30.4,6-61.8,6-92.2,0L242.3,251.4z M192,80
	c8.4-19.5,27.3-32.4,48.6-33h5.9c21.1,0.9,39.8,13.9,48,33.4c9,20.2,5.6,43.7-8.6,60.5l-43.2,51.2L200,140.5
	C186,123.5,182.9,100,192,80z M112.5,302c-21.3-4.6-37.9-21.2-42.7-42.5c0-1-0.4-1.9-0.6-2.9c-0.2-1-0.4-2-0.5-2.9
	c-3.3-21.5,6.2-43,24.3-55.1c18.6-13,42.9-14.2,62.6-3.1l59.8,33.4l-43.6,53.5C157.5,299.7,134.4,307.4,112.5,302z M247.8,429.9
	h-3.9H240c-20.1-0.6-38.9-10.2-51-26.3c35.9,7.4,72.8,7.4,108.7,0C285.8,419.4,267.5,429,247.8,429.9L247.8,429.9z M312.3,365.6
	h-0.8c-44.6,13.3-92.1,13.3-136.7,0h-0.8c-0.8-9.9,0.5-19.8,3.7-29.2c42.9,10.6,87.8,10.6,130.7,0
	C311.9,345.7,313.2,355.7,312.3,365.6z M415.2,253.6c0,1-0.3,1.9-0.5,2.9s-0.4,1.9-0.6,2.9c-4.7,21.3-21.4,37.8-42.7,42.5
	c-19.9,4.8-40.9-1.1-55.4-15.6l-16.5-19.4l-31.1-38l59.9-33.5c19.7-11.1,44.1-9.9,62.6,3.1c18.2,12.1,27.6,33.7,24.2,55.3V253.6z"/>
</svg>
