<svg id="Capa_1" data-name="Capa 1" xmlns="http://www.w3.org/2000/svg" viewBox="0 0 92.97 161.14"><defs><style>.cls-1{opacity:0.5;}.cls-2{fill:none;}.cls-3{fill:#f6e81c;}</style></defs><title>background</title><g class="cls-1"><polygon class="cls-2" points="47.51 40.41 70.18 53.5 92.9 40.39 92.9 14.18 70.2 1.07 47.51 14.17 47.51 40.41"/><polygon class="cls-2" points="23.06 80.65 23.06 54.43 0.35 41.32 -22.36 54.43 -22.36 80.63 0.36 93.75 23.06 80.65"/><polygon class="cls-2" points="46.49 40.4 46.49 14.16 23.8 1.06 1.09 14.17 1.09 40.39 23.8 53.5 46.49 40.4"/><polygon class="cls-2" points="24.21 80.64 46.91 93.75 69.6 80.65 69.6 54.41 46.92 41.31 24.21 54.42 24.21 80.64"/><polygon class="cls-2" points="116 80.64 116 54.41 93.32 41.31 70.62 54.42 70.62 80.65 93.31 93.75 116 80.64"/><polygon class="cls-2" points="47.4 94.76 47.4 120.98 69.99 134.02 92.71 120.9 92.71 94.7 70.11 81.65 47.4 94.76"/><polygon class="cls-2" points="69.43 161.14 69.43 134.9 46.76 121.81 24.06 134.91 24.06 161.14 46.74 174.24 69.43 161.14"/><polygon class="cls-2" points="23.04 134.9 0.35 121.8 -22.36 134.92 -22.36 161.13 0.35 174.24 23.04 161.14 23.04 134.9"/><polygon class="cls-2" points="46.34 94.67 23.63 81.56 0.94 94.66 0.94 120.91 23.62 134 46.34 120.88 46.34 94.67"/><polygon class="cls-2" points="70.45 135.05 70.45 161.15 93.14 174.25 115.85 161.14 115.85 134.92 93.26 121.88 70.45 135.05"/><path class="cls-3" d="M140.38,40.55V13.69L116.68,0,93.51,13.38,70.2-.09,47,13.3,23.8-.09,0.09,13.59V40.31L-23.36,53.85V80.74L-46.47,94.09v27.38l23.11,13.34v26.9L0.35,175.4,23.55,162l22.6,13V202l23.71,13.69L93.56,202v-26.8l23.28-13.44V134.9l23.28-13.44V94.67l23.28-13.44V53.85ZM94,14.26L116.68,1.15l22.71,13.11V40.35L116.56,53.53,94,40.49V14.26ZM92.71,120.9L70,134,47.4,121V94.76L70.11,81.65l22.6,13v26.2ZM70.62,54.42l22.7-13.11L116,54.41V80.64L93.3,93.75,70.62,80.65V54.42ZM92.9,14.18V40.39L70.18,53.5,47.51,40.41V14.17L70.2,1.07ZM69.6,54.41V80.65L46.91,93.75,24.21,80.64V54.42L46.92,41.31ZM1.09,14.17L23.8,1.06l22.69,13.1V40.4L23.8,53.5,1.09,40.39V14.17ZM-22.36,54.43L0.35,41.32,23.06,54.43V80.65L0.36,93.75-22.36,80.63V54.43Zm-23.11,66.46V94.66l22.7-13.1,22.7,13.11v26.22L-22.77,134Zm23.11,40.25V134.92L0.35,121.8,23,134.9v26.24L0.35,174.24Zm23.3-40.23V94.66l22.69-13.1L46.34,94.67v26.21L23.62,134Zm23.11,40.24V134.91l22.7-13.11L69.43,134.9v26.24l-22.69,13.1Zm68.51,40.23L69.86,214.49,47.15,201.38V175.16l22.71-13.11,22.7,13.11v26.22Zm23.28-40.24L93.14,174.25l-22.69-13.1V135l22.81-13.17,22.59,13v26.22Zm23.28-40.26L116.42,134l-22.6-13V94.61l22.61-13.05,22.7,13.11v26.22Zm23.28-40.24L139.7,93.76,117,80.66V54.55l22.81-13.17,22.59,13V80.65Z"/></g></svg>